<svg xmlns="http://www.w3.org/2000/svg" version="1.1" xmlns:xlink="http://www.w3.org/1999/xlink" xmlns:svgjs="http://svgjs.dev/svgjs" width="1500" height="1500" viewBox="0 0 1500 1500"><rect width="1500" height="1500" fill="#000000"></rect><g transform="matrix(0.6666666666666666,0,0,0.6666666666666666,249.95501671664567,201.77759784075585)"><svg viewBox="0 0 225 247" data-background-color="#fdfdfd" preserveAspectRatio="xMidYMid meet" height="1646" width="1500" xmlns="http://www.w3.org/2000/svg" xmlns:xlink="http://www.w3.org/1999/xlink"><g id="tight-bounds" transform="matrix(1,0,0,1,0.010121238754720707,-0.09999999999999432)"><svg viewBox="0 0 224.97975752249056 247.2" height="247.2" width="224.97975752249056"><g><svg viewBox="0 0 395.52 434.5837380068558" height="247.2" width="224.97975752249056"><g transform="matrix(1,0,0,1,0,263.86502107922036)"><svg viewBox="0 0 395.52 170.71871692763546" height="170.71871692763546" width="395.52"><g id="textblocktransform"><svg viewBox="0 0 395.52 170.71871692763546" height="170.71871692763546" width="395.52" id="textblock"><g><svg viewBox="0 0 395.52 118.31678902229847" height="118.31678902229847" width="395.52"><g transform="matrix(1,0,0,1,0,0)"><svg width="395.52" viewBox="0.95 -43.2 145.74 43.6" height="118.31678902229847" data-palette-color="#ffffff"><path d="M11.45 0.4Q8.5 0.4 6.1-0.75 3.7-1.9 2.33-4.13 0.95-6.35 0.95-9.5L0.95-9.5 0.95-20.25 9.4-20.25 9.4-10Q9.4-8.85 9.88-8.18 10.35-7.5 11.35-7.5L11.35-7.5Q12.3-7.5 12.78-8.13 13.25-8.75 13.25-9.9L13.25-9.9 13.25-42.95 21.9-42.95 21.9-10.75Q21.9-7.4 20.58-4.88 19.25-2.35 16.88-0.98 14.5 0.4 11.45 0.4L11.45 0.4ZM35.7 0.4Q24.75 0.4 24.75-10.95L24.75-10.95 24.75-25.65Q24.75-30.85 27.67-33.93 30.6-37 35.7-37L35.7-37Q40.8-37 43.72-33.93 46.65-30.85 46.65-25.65L46.65-25.65 46.65-10.95Q46.65 0.4 35.7 0.4L35.7 0.4ZM35.7-6.35Q36.75-6.35 37.25-7.1 37.75-7.85 37.75-9.15L37.75-9.15 37.75-27.05Q37.75-30.25 35.7-30.25L35.7-30.25Q33.65-30.25 33.65-27.05L33.65-27.05 33.65-9.15Q33.65-7.85 34.15-7.1 34.65-6.35 35.7-6.35L35.7-6.35ZM64.05 0.4Q60.45 0.4 58.9-3.9L58.9-3.9 58.9 0 49.9 0 49.9-43.2 58.9-43.2 58.9-34.85Q61-37 63.8-37L63.8-37Q68.05-37 69.9-34.48 71.75-31.95 71.75-27.2L71.75-27.2 71.75-9.55Q71.75-5.05 69.84-2.33 67.95 0.4 64.05 0.4L64.05 0.4ZM61.1-6.4Q62-6.4 62.37-6.98 62.75-7.55 62.82-8.43 62.9-9.3 62.9-11.15L62.9-11.15 62.9-26.4Q62.9-28.35 62.55-29.3 62.2-30.25 61.05-30.25L61.05-30.25Q59.8-30.25 59.35-29.3 58.9-28.35 58.9-26.5L58.9-26.5 58.9-11.15Q58.9-8.75 59.3-7.58 59.7-6.4 61.1-6.4L61.1-6.4ZM83.64 0L75.09 0 75.09-42.95 83.64-42.95 83.64-27.6 87.69-27.6 87.69-42.95 96.24-42.95 96.24 0 87.69 0 87.69-19.5 83.64-19.5 83.64 0ZM106.94 0.4Q102.84 0.4 101.32-2.05 99.79-4.5 99.79-9.35L99.79-9.35 99.79-36.6 108.59-36.6 108.59-11.1Q108.59-10.75 108.59-9.22 108.59-7.7 109.07-7.08 109.54-6.45 110.54-6.45L110.54-6.45Q111.89-6.45 112.24-7.58 112.59-8.7 112.59-10.8L112.59-10.8 112.59-11.1 112.64-36.6 121.34-36.6 121.34 0 112.59 0 112.59-3.9Q111.69-1.6 110.49-0.6 109.29 0.4 106.94 0.4L106.94 0.4ZM138.99 0.4Q135.39 0.4 133.84-3.9L133.84-3.9 133.84 0 124.84 0 124.84-43.2 133.84-43.2 133.84-34.85Q135.94-37 138.74-37L138.74-37Q142.99-37 144.84-34.48 146.69-31.95 146.69-27.2L146.69-27.2 146.69-9.55Q146.69-5.05 144.79-2.33 142.89 0.4 138.99 0.4L138.99 0.4ZM136.04-6.4Q136.94-6.4 137.31-6.98 137.69-7.55 137.76-8.43 137.84-9.3 137.84-11.15L137.84-11.15 137.84-26.4Q137.84-28.35 137.49-29.3 137.14-30.25 135.99-30.25L135.99-30.25Q134.74-30.25 134.29-29.3 133.84-28.35 133.84-26.5L133.84-26.5 133.84-11.15Q133.84-8.75 134.24-7.58 134.64-6.4 136.04-6.4L136.04-6.4Z" opacity="1" transform="matrix(1,0,0,1,0,0)" fill="#ffffff" class="wordmark-text-0" data-fill-palette-color="primary" id="text-0"></path></svg></g></svg></g><g transform="matrix(1,0,0,1,0,146.2485433075266)"><svg viewBox="0 0 395.52 24.470173620108838" height="24.470173620108838" width="395.52"><g transform="matrix(1,0,0,1,0,0)"><svg width="395.52" viewBox="1.6 -36.9 771.7099999999999 47.75" height="24.470173620108838" data-palette-color="#ffffff"><path d="M1.6-36.4L7-36.4 15.45-22.25 23.3-36.4 27.65-36.4 17.2-18 17.2 0 12.45 0 12.45-18 1.6-36.4ZM37.45 0.65L37.45 0.65Q33.8 0.65 31.32-1.18 28.85-3 27.62-5.95 26.4-8.9 26.4-12.25L26.4-12.25Q26.4-15.6 27.72-18.63 29.05-21.65 31.6-23.55 34.15-25.45 37.75-25.45L37.75-25.45Q41.45-25.45 43.92-23.65 46.4-21.85 47.62-18.9 48.85-15.95 48.85-12.55L48.85-12.55Q48.85-9.15 47.55-6.13 46.25-3.1 43.7-1.23 41.15 0.65 37.45 0.65ZM37.5-2.5L37.5-2.5Q39.45-2.5 40.77-3.43 42.1-4.35 42.92-5.85 43.75-7.35 44.1-9.08 44.45-10.8 44.45-12.4L44.45-12.4Q44.45-14.05 44.12-15.78 43.8-17.5 43.05-18.98 42.3-20.45 40.97-21.38 39.65-22.3 37.7-22.3L37.7-22.3Q35.75-22.3 34.42-21.38 33.1-20.45 32.3-18.95 31.5-17.45 31.15-15.73 30.8-14 30.8-12.4L30.8-12.4Q30.8-10.85 31.15-9.13 31.5-7.4 32.27-5.9 33.05-4.4 34.35-3.45 35.65-2.5 37.5-2.5ZM54.4-24.85L59.2-24.85 59.2-9.55Q59.2-8.1 59.45-6.58 59.7-5.05 60.57-4.05 61.45-3.05 63.34-3.05L63.34-3.05Q65.2-3.05 66.72-3.85 68.25-4.65 69.2-6.08 70.15-7.5 70.15-9.4L70.15-9.4 70.15-21.9Q70.15-21.95 70-22.63 69.84-23.3 69.7-24.03 69.55-24.75 69.5-24.85L69.5-24.85 74.3-24.85 74.3-4.85Q74.3-3.9 74.62-3.45 74.95-3 75.65-3L75.65-3Q76.34-3 77.55-3.45L77.55-3.45 78.45-0.75Q77.45-0.2 76.22 0.13 75 0.45 73.9 0.45L73.9 0.45Q72.59 0.45 71.59-0.3 70.59-1.05 70.3-2.95L70.3-2.95Q68.84-1.45 66.82-0.4 64.8 0.65 62.65 0.65L62.65 0.65Q59.9 0.65 58.22-0.5 56.55-1.65 55.8-3.63 55.05-5.6 55.05-8.2L55.05-8.2 55.05-21.9 54.4-24.85ZM81.14-24.75L85.64-25.3Q86.54-23.1 86.79-20.65L86.79-20.65Q88.09-22.7 90.29-24 92.49-25.3 94.94-25.3L94.94-25.3 93.94-20.9Q91.54-20.9 89.87-19.65 88.19-18.4 86.89-16.5L86.89-16.5 86.89 0 82.74 0 82.74-18Q82.74-19 82.59-20.25 82.44-21.5 82.09-22.7 81.74-23.9 81.14-24.75L81.14-24.75ZM126.89-36.9L126.89-36.9Q128.84-36.9 131.06-36.48 133.29-36.05 135.36-35.13 137.44-34.2 138.84-32.75L138.84-32.75 136.19-29.65Q134.64-30.9 133.29-31.7 131.94-32.5 130.46-32.9 128.99-33.3 126.89-33.3L126.89-33.3Q123.59-33.3 121.31-32.05 119.04-30.8 117.61-28.65 116.19-26.5 115.54-23.8 114.89-21.1 114.89-18.2L114.89-18.2Q114.89-15.45 115.49-12.78 116.09-10.1 117.44-7.9 118.79-5.7 120.99-4.4 123.19-3.1 126.39-3.1L126.39-3.1Q129.04-3.1 130.96-4.28 132.89-5.45 133.96-7.48 135.04-9.5 135.04-12.05L135.04-12.05 135.04-15.35 126.09-15.35 126.69-18.75 139.74-18.75 139.74-8.3Q139.74-6.25 139.91-4.15 140.09-2.05 140.19 0L140.19 0 137.69 0 136.09-3.8Q133.89-1.45 131.36-0.43 128.84 0.6 125.59 0.6L125.59 0.6Q121.64 0.6 118.71-0.88 115.79-2.35 113.84-4.93 111.89-7.5 110.94-10.8 109.99-14.1 109.99-17.75L109.99-17.75Q109.99-23.1 111.86-27.43 113.74-31.75 117.49-34.33 121.24-36.9 126.89-36.9ZM155.64-25.45L155.64-25.45Q159.59-25.45 161.59-23.3 163.59-21.15 163.59-17.25L163.59-17.25 163.59-4.8Q163.59-3.75 163.99-3.38 164.39-3 164.94-3L164.94-3Q165.39-3 165.89-3.13 166.39-3.25 166.84-3.45L166.84-3.45 167.74-0.75Q166.94-0.3 165.71 0.08 164.49 0.45 163.19 0.45L163.19 0.45Q161.89 0.45 160.84-0.28 159.79-1 159.54-2.95L159.54-2.95Q158.09-1.4 156.14-0.43 154.19 0.55 152.04 0.55L152.04 0.55Q149.09 0.55 147.14-1.2 145.19-2.95 145.19-6L145.19-6Q145.19-8.85 146.56-10.55 147.94-12.25 150.14-13.1 152.34-13.95 154.81-14.25 157.29-14.55 159.44-14.55L159.44-14.55 159.44-17.2Q159.44-19.3 158.59-20.75 157.74-22.2 155.29-22.2L155.29-22.2Q153.39-22.2 151.64-21.45 149.89-20.7 148.14-19.25L148.14-19.25 146.09-22.2Q148.14-23.85 150.59-24.65 153.04-25.45 155.64-25.45ZM159.44-9.7L159.44-11.3Q158.09-11.3 156.39-11.18 154.69-11.05 153.09-10.58 151.49-10.1 150.46-9.05 149.44-8 149.44-6.15L149.44-6.15Q149.44-4.5 150.56-3.73 151.69-2.95 153.39-2.95L153.39-2.95Q155.19-2.95 156.54-3.95 157.89-4.95 158.66-6.5 159.44-8.05 159.44-9.7L159.44-9.7ZM174.48-31.95L177.53-31.95Q177.18-30.25 176.91-28.43 176.63-26.6 176.53-24.85L176.53-24.85 183.03-24.85 182.18-21.7 176.53-21.7 176.53-5.8Q176.53-4.85 176.76-4.13 176.98-3.4 177.56-3.03 178.13-2.65 179.18-2.65L179.18-2.65Q179.98-2.65 180.78-2.8 181.58-2.95 182.33-3.15L182.33-3.15 183.03-0.35Q181.78 0 180.66 0.28 179.53 0.55 178.08 0.55L178.08 0.55Q174.88 0.55 173.63-1.15 172.38-2.85 172.38-5.9L172.38-5.9 172.38-21.7 168.68-21.7 168.68-24.2Q170.68-24.25 171.83-25.53 172.98-26.8 173.58-28.6 174.18-30.4 174.48-31.95L174.48-31.95ZM196.78-25.45L196.78-25.45Q199.78-25.45 201.83-24.23 203.88-23 204.91-20.83 205.93-18.65 205.93-15.75L205.93-15.75Q205.93-15.05 205.86-14.33 205.78-13.6 205.68-12.8L205.68-12.8 189.88-12.8Q189.88-8.05 191.98-5.45 194.08-2.85 197.58-2.85L197.58-2.85Q199.03-2.85 200.6-3.3 202.18-3.75 203.88-4.65L203.88-4.65 205.43-2.15Q203.68-0.75 201.48-0.05 199.28 0.65 197.03 0.65L197.03 0.65Q193.13 0.65 190.56-1.2 187.98-3.05 186.73-6 185.48-8.95 185.48-12.15L185.48-12.15Q185.48-14.65 186.18-17 186.88-19.35 188.31-21.28 189.73-23.2 191.83-24.33 193.93-25.45 196.78-25.45ZM196.38-22.3L196.38-22.3Q194.68-22.3 193.38-21.35 192.08-20.4 191.28-18.93 190.48-17.45 190.18-15.9L190.18-15.9 201.58-15.9Q201.63-18 201-19.43 200.38-20.85 199.21-21.58 198.03-22.3 196.38-22.3ZM208.63-24.85L212.93-24.85 217.23-10.4Q217.43-9.75 217.6-9.05 217.78-8.35 217.98-7.35L217.98-7.35Q218.18-8.35 218.35-9.03 218.53-9.7 218.73-10.3L218.73-10.3 223.28-24.85 226.23-24.85 230.58-10.4Q230.78-9.75 230.95-9.05 231.13-8.35 231.33-7.35L231.33-7.35Q231.53-8.35 231.73-9.05 231.93-9.75 232.13-10.4L232.13-10.4 236.58-24.85 240.28-24.85 232.43 0.3 229.43 0.3Q228.58-2.6 227.73-5.28 226.88-7.95 226.08-10.8 225.28-13.65 224.38-17.15L224.38-17.15Q223.48-13.65 222.6-10.8 221.73-7.95 220.85-5.28 219.98-2.6 219.03 0.3L219.03 0.3 215.98 0.3 208.63-24.85ZM252.53-25.45L252.53-25.45Q256.48-25.45 258.48-23.3 260.48-21.15 260.48-17.25L260.48-17.25 260.48-4.8Q260.48-3.75 260.88-3.38 261.28-3 261.83-3L261.83-3Q262.28-3 262.78-3.13 263.28-3.25 263.73-3.45L263.73-3.45 264.63-0.75Q263.83-0.3 262.6 0.08 261.38 0.45 260.08 0.45L260.08 0.45Q258.78 0.45 257.73-0.28 256.68-1 256.43-2.95L256.43-2.95Q254.98-1.4 253.03-0.43 251.08 0.55 248.93 0.55L248.93 0.55Q245.98 0.55 244.03-1.2 242.08-2.95 242.08-6L242.08-6Q242.08-8.85 243.45-10.55 244.83-12.25 247.03-13.1 249.23-13.95 251.7-14.25 254.18-14.55 256.33-14.55L256.33-14.55 256.33-17.2Q256.33-19.3 255.48-20.75 254.63-22.2 252.18-22.2L252.18-22.2Q250.28-22.2 248.53-21.45 246.78-20.7 245.03-19.25L245.03-19.25 242.98-22.2Q245.03-23.85 247.48-24.65 249.93-25.45 252.53-25.45ZM256.33-9.7L256.33-11.3Q254.98-11.3 253.28-11.18 251.58-11.05 249.98-10.58 248.38-10.1 247.35-9.05 246.33-8 246.33-6.15L246.33-6.15Q246.33-4.5 247.45-3.73 248.58-2.95 250.28-2.95L250.28-2.95Q252.08-2.95 253.43-3.95 254.78-4.95 255.55-6.5 256.33-8.05 256.33-9.7L256.33-9.7ZM264.17-24.85L268.67-24.85Q269.77-21.75 270.85-18.65 271.92-15.55 273.02-12.3L273.02-12.3Q273.57-10.6 274.15-8.88 274.72-7.15 275.27-5.45L275.27-5.45Q275.82-7.2 276.4-8.9 276.97-10.6 277.52-12.3L277.52-12.3Q278.62-15.55 279.7-18.65 280.77-21.75 281.87-24.85L281.87-24.85 285.77-24.85 276.97 0.1Q276.42 1.65 275.57 3.53 274.72 5.4 273.57 7.05 272.42 8.7 270.87 9.78 269.32 10.85 267.37 10.85L267.37 10.85 265.47 10.85 265.47 7.5Q265.62 7.5 265.75 7.5 265.87 7.5 266.02 7.5L266.02 7.5Q268.12 7.5 269.5 6.25 270.87 5 271.77 3.23 272.67 1.45 273.27-0.2L273.27-0.2 264.17-24.85ZM302.67-31.95L305.72-31.95Q305.37-30.25 305.09-28.43 304.82-26.6 304.72-24.85L304.72-24.85 311.22-24.85 310.37-21.7 304.72-21.7 304.72-5.8Q304.72-4.85 304.94-4.13 305.17-3.4 305.74-3.03 306.32-2.65 307.37-2.65L307.37-2.65Q308.17-2.65 308.97-2.8 309.77-2.95 310.52-3.15L310.52-3.15 311.22-0.35Q309.97 0 308.84 0.28 307.72 0.55 306.27 0.55L306.27 0.55Q303.07 0.55 301.82-1.15 300.57-2.85 300.57-5.9L300.57-5.9 300.57-21.7 296.87-21.7 296.87-24.2Q298.87-24.25 300.02-25.53 301.17-26.8 301.77-28.6 302.37-30.4 302.67-31.95L302.67-31.95ZM324.72 0.65L324.72 0.65Q321.07 0.65 318.59-1.18 316.12-3 314.89-5.95 313.67-8.9 313.67-12.25L313.67-12.25Q313.67-15.6 314.99-18.63 316.32-21.65 318.87-23.55 321.42-25.45 325.02-25.45L325.02-25.45Q328.72-25.45 331.19-23.65 333.67-21.85 334.89-18.9 336.12-15.95 336.12-12.55L336.12-12.55Q336.12-9.15 334.82-6.13 333.52-3.1 330.97-1.23 328.42 0.65 324.72 0.65ZM324.77-2.5L324.77-2.5Q326.72-2.5 328.04-3.43 329.37-4.35 330.19-5.85 331.02-7.35 331.37-9.08 331.72-10.8 331.72-12.4L331.72-12.4Q331.72-14.05 331.39-15.78 331.07-17.5 330.32-18.98 329.57-20.45 328.24-21.38 326.92-22.3 324.97-22.3L324.97-22.3Q323.02-22.3 321.69-21.38 320.37-20.45 319.57-18.95 318.77-17.45 318.42-15.73 318.07-14 318.07-12.4L318.07-12.4Q318.07-10.85 318.42-9.13 318.77-7.4 319.54-5.9 320.32-4.4 321.62-3.45 322.92-2.5 324.77-2.5ZM369.06-36.9L369.06-36.9Q371.01-36.9 373.24-36.48 375.46-36.05 377.54-35.13 379.61-34.2 381.01-32.75L381.01-32.75 378.36-29.65Q376.81-30.9 375.46-31.7 374.11-32.5 372.64-32.9 371.16-33.3 369.06-33.3L369.06-33.3Q365.76-33.3 363.49-32.05 361.21-30.8 359.79-28.65 358.36-26.5 357.71-23.8 357.06-21.1 357.06-18.2L357.06-18.2Q357.06-15.45 357.66-12.78 358.26-10.1 359.61-7.9 360.96-5.7 363.16-4.4 365.36-3.1 368.56-3.1L368.56-3.1Q371.21-3.1 373.14-4.28 375.06-5.45 376.14-7.48 377.21-9.5 377.21-12.05L377.21-12.05 377.21-15.35 368.26-15.35 368.86-18.75 381.91-18.75 381.91-8.3Q381.91-6.25 382.09-4.15 382.26-2.05 382.36 0L382.36 0 379.86 0 378.26-3.8Q376.06-1.45 373.54-0.43 371.01 0.6 367.76 0.6L367.76 0.6Q363.81 0.6 360.89-0.88 357.96-2.35 356.01-4.93 354.06-7.5 353.11-10.8 352.16-14.1 352.16-17.75L352.16-17.75Q352.16-23.1 354.04-27.43 355.91-31.75 359.66-34.33 363.41-36.9 369.06-36.9ZM387.61-24.75L392.11-25.3Q393.01-23.1 393.26-20.65L393.26-20.65Q394.56-22.7 396.76-24 398.96-25.3 401.41-25.3L401.41-25.3 400.41-20.9Q398.01-20.9 396.33-19.65 394.66-18.4 393.36-16.5L393.36-16.5 393.36 0 389.21 0 389.21-18Q389.21-19 389.06-20.25 388.91-21.5 388.56-22.7 388.21-23.9 387.61-24.75L387.61-24.75ZM416.11-25.45L416.11-25.45Q419.11-25.45 421.16-24.23 423.21-23 424.23-20.83 425.26-18.65 425.26-15.75L425.26-15.75Q425.26-15.05 425.18-14.33 425.11-13.6 425.01-12.8L425.01-12.8 409.21-12.8Q409.21-8.05 411.31-5.45 413.41-2.85 416.91-2.85L416.91-2.85Q418.36-2.85 419.93-3.3 421.51-3.75 423.21-4.65L423.21-4.65 424.76-2.15Q423.01-0.75 420.81-0.05 418.61 0.65 416.36 0.65L416.36 0.65Q412.46 0.65 409.88-1.2 407.31-3.05 406.06-6 404.81-8.95 404.81-12.15L404.81-12.15Q404.81-14.65 405.51-17 406.21-19.35 407.63-21.28 409.06-23.2 411.16-24.33 413.26-25.45 416.11-25.45ZM415.71-22.3L415.71-22.3Q414.01-22.3 412.71-21.35 411.41-20.4 410.61-18.93 409.81-17.45 409.51-15.9L409.51-15.9 420.91-15.9Q420.96-18 420.33-19.43 419.71-20.85 418.53-21.58 417.36-22.3 415.71-22.3ZM439.95-25.45L439.95-25.45Q443.9-25.45 445.9-23.3 447.9-21.15 447.9-17.25L447.9-17.25 447.9-4.8Q447.9-3.75 448.3-3.38 448.7-3 449.25-3L449.25-3Q449.7-3 450.2-3.13 450.7-3.25 451.15-3.45L451.15-3.45 452.05-0.75Q451.25-0.3 450.03 0.08 448.8 0.45 447.5 0.45L447.5 0.45Q446.2 0.45 445.15-0.28 444.1-1 443.85-2.95L443.85-2.95Q442.4-1.4 440.45-0.43 438.5 0.55 436.35 0.55L436.35 0.55Q433.4 0.55 431.45-1.2 429.5-2.95 429.5-6L429.5-6Q429.5-8.85 430.88-10.55 432.25-12.25 434.45-13.1 436.65-13.95 439.13-14.25 441.6-14.55 443.75-14.55L443.75-14.55 443.75-17.2Q443.75-19.3 442.9-20.75 442.05-22.2 439.6-22.2L439.6-22.2Q437.7-22.2 435.95-21.45 434.2-20.7 432.45-19.25L432.45-19.25 430.4-22.2Q432.45-23.85 434.9-24.65 437.35-25.45 439.95-25.45ZM443.75-9.7L443.75-11.3Q442.4-11.3 440.7-11.18 439-11.05 437.4-10.58 435.8-10.1 434.78-9.05 433.75-8 433.75-6.15L433.75-6.15Q433.75-4.5 434.88-3.73 436-2.95 437.7-2.95L437.7-2.95Q439.5-2.95 440.85-3.95 442.2-4.95 442.98-6.5 443.75-8.05 443.75-9.7L443.75-9.7ZM458.8-31.95L461.85-31.95Q461.5-30.25 461.23-28.43 460.95-26.6 460.85-24.85L460.85-24.85 467.35-24.85 466.5-21.7 460.85-21.7 460.85-5.8Q460.85-4.85 461.08-4.13 461.3-3.4 461.88-3.03 462.45-2.65 463.5-2.65L463.5-2.65Q464.3-2.65 465.1-2.8 465.9-2.95 466.65-3.15L466.65-3.15 467.35-0.35Q466.1 0 464.98 0.28 463.85 0.55 462.4 0.55L462.4 0.55Q459.2 0.55 457.95-1.15 456.7-2.85 456.7-5.9L456.7-5.9 456.7-21.7 453-21.7 453-24.2Q455-24.25 456.15-25.53 457.3-26.8 457.9-28.6 458.5-30.4 458.8-31.95L458.8-31.95ZM498.25 0.55L498.25 0.55Q494.2 0.55 491.17-0.95 488.15-2.45 486.15-5.08 484.15-7.7 483.15-11.05 482.15-14.4 482.15-18.15L482.15-18.15Q482.15-21.9 483.12-25.28 484.1-28.65 486.1-31.28 488.1-33.9 491.15-35.4 494.2-36.9 498.3-36.9L498.3-36.9Q502.4-36.9 505.42-35.4 508.45-33.9 510.45-31.28 512.45-28.65 513.42-25.28 514.4-21.9 514.4-18.15L514.4-18.15Q514.4-14.4 513.4-11.03 512.4-7.65 510.4-5.05 508.4-2.45 505.37-0.95 502.35 0.55 498.25 0.55ZM498.3-2.85L498.3-2.85Q501.5-2.85 503.65-4.2 505.8-5.55 507.1-7.8 508.4-10.05 508.97-12.75 509.55-15.45 509.55-18.15L509.55-18.15Q509.55-20.85 508.97-23.55 508.4-26.25 507.1-28.48 505.8-30.7 503.62-32.05 501.45-33.4 498.3-33.4L498.3-33.4Q495.15-33.4 492.97-32.05 490.8-30.7 489.52-28.45 488.25-26.2 487.67-23.5 487.1-20.8 487.1-18.1L487.1-18.1Q487.1-15.4 487.67-12.73 488.25-10.05 489.52-7.8 490.8-5.55 492.97-4.2 495.15-2.85 498.3-2.85ZM519.19-24.65L523.59-25.2Q523.99-24.4 524.22-23.53 524.44-22.65 524.54-21.8L524.54-21.8Q525.84-23.45 527.77-24.43 529.69-25.4 531.84-25.4L531.84-25.4Q534.49-25.4 536.44-24.3 538.39-23.2 539.67-21.33 540.94-19.45 541.57-17.18 542.19-14.9 542.19-12.55L542.19-12.55Q542.19-9.15 540.97-6.13 539.74-3.1 537.27-1.23 534.79 0.65 531.04 0.65L531.04 0.65Q529.34 0.65 527.67 0.1 525.99-0.45 524.74-1.6L524.74-1.6Q524.84-0.9 524.84-0.2 524.84 0.5 524.84 0.9L524.84 0.9 524.84 7.85 525.54 10.8 520.74 10.8 520.74-17.6Q520.74-18.65 520.59-19.95 520.44-21.25 520.12-22.5 519.79-23.75 519.19-24.65L519.19-24.65ZM530.59-21.75L530.59-21.75Q528.89-21.75 527.39-20.73 525.89-19.7 524.84-18.45L524.84-18.45 524.84-10.05Q524.84-8.1 525.47-6.43 526.09-4.75 527.44-3.75 528.79-2.75 530.94-2.75L530.94-2.75Q532.89-2.75 534.22-3.6 535.54-4.45 536.34-5.85 537.14-7.25 537.47-8.93 537.79-10.6 537.79-12.25L537.79-12.25Q537.79-14 537.42-15.68 537.04-17.35 536.19-18.73 535.34-20.1 533.97-20.93 532.59-21.75 530.59-21.75ZM546.64-24.65L551.04-25.2Q551.44-24.4 551.66-23.53 551.89-22.65 551.99-21.8L551.99-21.8Q553.29-23.45 555.22-24.43 557.14-25.4 559.29-25.4L559.29-25.4Q561.94-25.4 563.89-24.3 565.84-23.2 567.12-21.33 568.39-19.45 569.01-17.18 569.64-14.9 569.64-12.55L569.64-12.55Q569.64-9.15 568.41-6.13 567.19-3.1 564.72-1.23 562.24 0.65 558.49 0.65L558.49 0.65Q556.79 0.65 555.12 0.1 553.44-0.45 552.19-1.6L552.19-1.6Q552.29-0.9 552.29-0.2 552.29 0.5 552.29 0.9L552.29 0.9 552.29 7.85 552.99 10.8 548.19 10.8 548.19-17.6Q548.19-18.65 548.04-19.95 547.89-21.25 547.56-22.5 547.24-23.75 546.64-24.65L546.64-24.65ZM558.04-21.75L558.04-21.75Q556.34-21.75 554.84-20.73 553.34-19.7 552.29-18.45L552.29-18.45 552.29-10.05Q552.29-8.1 552.91-6.43 553.54-4.75 554.89-3.75 556.24-2.75 558.39-2.75L558.39-2.75Q560.34-2.75 561.66-3.6 562.99-4.45 563.79-5.85 564.59-7.25 564.91-8.93 565.24-10.6 565.24-12.25L565.24-12.25Q565.24-14 564.87-15.68 564.49-17.35 563.64-18.73 562.79-20.1 561.41-20.93 560.04-21.75 558.04-21.75ZM585.19 0.65L585.19 0.65Q581.54 0.65 579.06-1.18 576.59-3 575.36-5.95 574.14-8.9 574.14-12.25L574.14-12.25Q574.14-15.6 575.46-18.63 576.79-21.65 579.34-23.55 581.89-25.45 585.49-25.45L585.49-25.45Q589.19-25.45 591.66-23.65 594.14-21.85 595.36-18.9 596.59-15.95 596.59-12.55L596.59-12.55Q596.59-9.15 595.29-6.13 593.99-3.1 591.44-1.23 588.89 0.65 585.19 0.65ZM585.24-2.5L585.24-2.5Q587.19-2.5 588.51-3.43 589.84-4.35 590.66-5.85 591.49-7.35 591.84-9.08 592.19-10.8 592.19-12.4L592.19-12.4Q592.19-14.05 591.86-15.78 591.54-17.5 590.79-18.98 590.04-20.45 588.71-21.38 587.39-22.3 585.44-22.3L585.44-22.3Q583.49-22.3 582.16-21.38 580.84-20.45 580.04-18.95 579.24-17.45 578.89-15.73 578.54-14 578.54-12.4L578.54-12.4Q578.54-10.85 578.89-9.13 579.24-7.4 580.01-5.9 580.79-4.4 582.09-3.45 583.39-2.5 585.24-2.5ZM600.88-24.75L605.38-25.3Q606.28-23.1 606.53-20.65L606.53-20.65Q607.83-22.7 610.03-24 612.23-25.3 614.68-25.3L614.68-25.3 613.68-20.9Q611.28-20.9 609.61-19.65 607.93-18.4 606.63-16.5L606.63-16.5 606.63 0 602.48 0 602.48-18Q602.48-19 602.33-20.25 602.18-21.5 601.83-22.7 601.48-23.9 600.88-24.75L600.88-24.75ZM623.68-31.95L626.73-31.95Q626.38-30.25 626.11-28.43 625.83-26.6 625.73-24.85L625.73-24.85 632.23-24.85 631.38-21.7 625.73-21.7 625.73-5.8Q625.73-4.85 625.96-4.13 626.18-3.4 626.76-3.03 627.33-2.65 628.38-2.65L628.38-2.65Q629.18-2.65 629.98-2.8 630.78-2.95 631.53-3.15L631.53-3.15 632.23-0.35Q630.98 0 629.86 0.28 628.73 0.55 627.28 0.55L627.28 0.55Q624.08 0.55 622.83-1.15 621.58-2.85 621.58-5.9L621.58-5.9 621.58-21.7 617.88-21.7 617.88-24.2Q619.88-24.25 621.03-25.53 622.18-26.8 622.78-28.6 623.38-30.4 623.68-31.95L623.68-31.95ZM636.58-24.85L641.38-24.85 641.38-9.55Q641.38-8.1 641.63-6.58 641.88-5.05 642.75-4.05 643.63-3.05 645.53-3.05L645.53-3.05Q647.38-3.05 648.9-3.85 650.43-4.65 651.38-6.08 652.33-7.5 652.33-9.4L652.33-9.4 652.33-21.9Q652.33-21.95 652.18-22.63 652.03-23.3 651.88-24.03 651.73-24.75 651.68-24.85L651.68-24.85 656.48-24.85 656.48-4.85Q656.48-3.9 656.8-3.45 657.13-3 657.83-3L657.83-3Q658.53-3 659.73-3.45L659.73-3.45 660.63-0.75Q659.63-0.2 658.4 0.13 657.18 0.45 656.08 0.45L656.08 0.45Q654.78 0.45 653.78-0.3 652.78-1.05 652.48-2.95L652.48-2.95Q651.03-1.45 649-0.4 646.98 0.65 644.83 0.65L644.83 0.65Q642.08 0.65 640.4-0.5 638.73-1.65 637.98-3.63 637.23-5.6 637.23-8.2L637.23-8.2 637.23-21.9 636.58-24.85ZM663.23-24.65L667.78-25.25Q668.13-24.4 668.38-23.5 668.63-22.6 668.73-21.7L668.73-21.7Q670.23-23.2 672.28-24.33 674.33-25.45 676.48-25.45L676.48-25.45Q679.23-25.45 680.9-24.3 682.58-23.15 683.33-21.18 684.08-19.2 684.08-16.6L684.08-16.6 684.08 0 679.98 0 679.98-15.25Q679.98-16.8 679.75-18.3 679.53-19.8 678.65-20.78 677.78-21.75 675.78-21.75L675.78-21.75Q674.58-21.75 673.33-21.28 672.08-20.8 670.98-20.05 669.88-19.3 668.98-18.45L668.98-18.45 668.98 0 664.88 0 664.88-17.6Q664.88-18.6 664.73-19.93 664.58-21.25 664.23-22.53 663.88-23.8 663.23-24.65L663.23-24.65ZM697.47-33.2L697.47-33.2Q697.47-31.95 696.6-31.05 695.72-30.15 694.42-30.15L694.42-30.15Q693.17-30.15 692.3-31.05 691.42-31.95 691.42-33.2L691.42-33.2Q691.42-34.45 692.3-35.35 693.17-36.25 694.42-36.25L694.42-36.25Q695.67-36.25 696.57-35.35 697.47-34.45 697.47-33.2ZM691.82-24.85L696.57-24.85 696.57 0 692.42 0 692.42-21.9 691.82-24.85ZM707.57-31.95L710.62-31.95Q710.27-30.25 710-28.43 709.72-26.6 709.62-24.85L709.62-24.85 716.12-24.85 715.27-21.7 709.62-21.7 709.62-5.8Q709.62-4.85 709.85-4.13 710.07-3.4 710.65-3.03 711.22-2.65 712.27-2.65L712.27-2.65Q713.07-2.65 713.87-2.8 714.67-2.95 715.42-3.15L715.42-3.15 716.12-0.35Q714.87 0 713.75 0.28 712.62 0.55 711.17 0.55L711.17 0.55Q707.97 0.55 706.72-1.15 705.47-2.85 705.47-5.9L705.47-5.9 705.47-21.7 701.77-21.7 701.77-24.2Q703.77-24.25 704.92-25.53 706.07-26.8 706.67-28.6 707.27-30.4 707.57-31.95L707.57-31.95ZM726.37-33.2L726.37-33.2Q726.37-31.95 725.49-31.05 724.62-30.15 723.32-30.15L723.32-30.15Q722.07-30.15 721.19-31.05 720.32-31.95 720.32-33.2L720.32-33.2Q720.32-34.45 721.19-35.35 722.07-36.25 723.32-36.25L723.32-36.25Q724.57-36.25 725.47-35.35 726.37-34.45 726.37-33.2ZM720.72-24.85L725.47-24.85 725.47 0 721.32 0 721.32-21.9 720.72-24.85ZM743.17-25.45L743.17-25.45Q746.17-25.45 748.22-24.23 750.27-23 751.29-20.83 752.32-18.65 752.32-15.75L752.32-15.75Q752.32-15.05 752.24-14.33 752.17-13.6 752.07-12.8L752.07-12.8 736.27-12.8Q736.27-8.05 738.37-5.45 740.47-2.85 743.97-2.85L743.97-2.85Q745.42-2.85 746.99-3.3 748.57-3.75 750.27-4.65L750.27-4.65 751.82-2.15Q750.07-0.75 747.87-0.05 745.67 0.65 743.42 0.65L743.42 0.65Q739.52 0.65 736.94-1.2 734.37-3.05 733.12-6 731.87-8.95 731.87-12.15L731.87-12.15Q731.87-14.65 732.57-17 733.27-19.35 734.69-21.28 736.12-23.2 738.22-24.33 740.32-25.45 743.17-25.45ZM742.77-22.3L742.77-22.3Q741.07-22.3 739.77-21.35 738.47-20.4 737.67-18.93 736.87-17.45 736.57-15.9L736.57-15.9 747.97-15.9Q748.02-18 747.39-19.43 746.77-20.85 745.59-21.58 744.42-22.3 742.77-22.3ZM766.56-25.45L766.56-25.45Q768.26-25.45 769.94-25.03 771.61-24.6 773.01-23.7L773.01-23.7 771.56-20.5Q770.46-21.4 769.11-21.85 767.76-22.3 766.46-22.3L766.46-22.3Q764.61-22.3 763.24-21.45 761.86-20.6 761.86-18.9L761.86-18.9Q761.86-17.05 763.09-16.15 764.31-15.25 766.01-14.45L766.01-14.45Q767.26-13.85 768.54-13.23 769.81-12.6 770.89-11.73 771.96-10.85 772.64-9.63 773.31-8.4 773.31-6.6L773.31-6.6Q773.31-4.1 772.09-2.48 770.86-0.85 768.89-0.1 766.91 0.65 764.61 0.65L764.61 0.65Q762.61 0.65 760.61 0.1 758.61-0.45 756.91-1.45L756.91-1.45 758.66-4.5Q759.86-3.6 761.36-3.05 762.86-2.5 764.26-2.5L764.26-2.5Q766.16-2.5 767.59-3.4 769.01-4.3 769.01-6.1L769.01-6.1Q769.01-7.35 768.24-8.18 767.46-9 766.26-9.65 765.06-10.3 763.76-10.9L763.76-10.9Q762.26-11.65 760.84-12.53 759.41-13.4 758.51-14.75 757.61-16.1 757.61-18.2L757.61-18.2Q757.61-20.6 758.89-22.2 760.16-23.8 762.21-24.63 764.26-25.45 766.56-25.45Z" opacity="1" transform="matrix(1,0,0,1,0,0)" fill="#ffffff" class="slogan-text-1" data-fill-palette-color="secondary" id="text-1"></path></svg></g></svg></g></svg></g></svg></g><g transform="matrix(1,0,0,1,79.79336660300388,0)"><svg viewBox="0 0 235.93326679399223 235.93326679399223" height="235.93326679399223" width="235.93326679399223"><g><svg></svg></g><g id="icon-0"><svg viewBox="0 0 235.93326679399223 235.93326679399223" height="235.93326679399223" width="235.93326679399223"><g><path transform="scale(2.35933,2.35933)" d="M30 100c-16.569 0-30-13.431-30-30v-40c0-16.569 13.431-30 30-30h40c16.569 0 30 13.431 30 30v40c0 16.569-13.431 30-30 30z" fill="#ffffff" fill-rule="nonzero" stroke="none" stroke-width="1" stroke-linecap="butt" stroke-linejoin="miter" stroke-miterlimit="10" stroke-dasharray="" stroke-dashoffset="0" font-family="none" font-weight="none" font-size="none" text-anchor="none" style="mix-blend-mode: normal" data-fill-palette-color="accent"></path></g><g transform="matrix(1,0,0,1,61.04764467043399,47.18665335879845)"><svg viewBox="0 0 113.83797745312425 141.55996007639533" height="141.55996007639533" width="113.83797745312425"><g><svg xmlns="http://www.w3.org/2000/svg" xmlns:xlink="http://www.w3.org/1999/xlink" version="1.1" x="0" y="0" viewBox="15.199999999999996 6.7 70.2038586779376 87.3" style="enable-background:new 0 0 100 100;" xml:space="preserve" height="141.55996007639533" width="113.83797745312425" class="icon-cg-0" data-fill-palette-color="quaternary" id="cg-0"><path d="M50.4 6.7c-10.8 0-19.6 8.8-19.6 19.6s8.8 19.6 19.6 19.6S70 37.1 70 26.3 61.2 6.7 50.4 6.7z" fill="#000000" data-fill-palette-color="quaternary"></path><path d="M68.5 53H32.3c-9.3 0-17.1 7.5-17.1 17v15.8h18.5c-0.7-1.9-1.2-4-1.2-6.1 0-9.5 8-17.3 17.8-17.3s17.8 7.7 17.8 17.3c0 2.2-0.4 4.2-1.2 6.1h18.5V70C85.6 60.5 78 53 68.5 53z" fill="#000000" data-fill-palette-color="quaternary"></path><rect x="48.4" y="74" width="4" height="1.3" fill="#000000" data-fill-palette-color="quaternary"></rect><path d="M50.4 65.6c-7.8 0-14.2 6.3-14.2 14.2 0 7.8 6.3 14.2 14.2 14.2s14.2-6.3 14.2-14.2S58.2 65.6 50.4 65.6zM58.6 85.8c0 0.5-0.4 0.9-0.9 0.9H43.1c-0.5 0-0.9-0.4-0.9-0.9v-9.6c0-0.5 0.4-0.9 0.9-0.9h4.1v-1.9c0-0.3 0.3-0.6 0.6-0.6H53c0.3 0 0.6 0.3 0.6 0.6v1.9h4.1c0.5 0 0.9 0.4 0.9 0.9V85.8z" fill="#000000" data-fill-palette-color="quaternary"></path></svg></g></svg></g></svg></g></svg></g><g></g></svg></g><defs></defs></svg><rect width="224.97975752249056" height="247.2" fill="none" stroke="none" visibility="hidden"></rect></g></svg></g></svg>